<?xml version="1.0" encoding="utf-8"?>
<!-- Generator: Adobe Illustrator 16.0.3, SVG Export Plug-In . SVG Version: 6.00 Build 0)  -->
<!DOCTYPE svg PUBLIC "-//W3C//DTD SVG 1.1//EN" "http://www.w3.org/Graphics/SVG/1.1/DTD/svg11.dtd">
<svg version="1.1" id="Layer_1" xmlns="http://www.w3.org/2000/svg" xmlns:xlink="http://www.w3.org/1999/xlink" x="0px" y="0px"
	 width="222px" height="220.917px" viewBox="0 0 222 220.917" enable-background="new 0 0 222 220.917" xml:space="preserve">
<g>
	<path fill="#FFFFFF" d="M97.153,92.129c-1.044-4.525-2.036-8.817-3.022-13.093c8.875-4.467,9.966-15.991,7.51-22.223
		c-3.255-8.253-9.808-11.542-19.573-9.485c-0.486-10.939-2.783-21.898,2.693-32.323c3.825-7.291,9.581-11.594,17.623-12.044
		c4.229-0.238,8.613-0.133,12.748,0.726c13.215,2.748,20.779,12.716,20.139,26.557c-0.381,8.224-1.201,16.445-2.232,24.615
		c-1.402,11.115-6.813,20.304-13.916,28.565c-0.695,0.814-1.463,1.68-1.824,2.665c-1.457,3.985,1.186,6.363,1.24,8.737
		c0.063,1.958,0.094,3.868,0.189,5.775c0.246,4.834,0.775,9.671,0.701,14.496c-0.055,3.792-1.248,7.392-4.154,10.093
		c-4.092,3.799-8.872,3.443-12.36-0.951c-3.315-4.175-4.694-9.134-5.221-14.361c-0.366-3.595-0.462-7.219-0.683-10.877
		C98.068,95.592,96.993,91.44,97.153,92.129z M110.184,14.067c-5.917-3.985-11.132-4.741-16.181-2.884
		c-9.53,3.507-11.1,18.061-6.028,25.205c11.519,16.23,36.401,13.98,43.547-0.468c3.254-6.575,2.768-15.515-2.172-20.511
		C123.951,9.955,117.102,9.42,110.184,14.067z M102.093,95.969c-0.302-0.149-0.601-0.3-0.901-0.447
		c-0.409,0.756-1.171,1.518-1.169,2.271c0.032,3.627-0.104,7.322,0.533,10.859c0.617,3.405,1.652,6.918,3.327,9.896
		c2.644,4.699,8.042,4.227,10.462-0.614c0.527-1.059,1.055-2.285,1.055-3.434c0.012-5.701-0.074-11.409-0.295-17.109
		c-0.1-2.513-1.641-2.637-3.551-1.768c0.326,2.543,0.904,4.941,0.871,7.334c-0.039,3.045-0.283,6.163-1.031,9.091
		c-0.32,1.259-2.091,2.868-3.277,2.938c-1.174,0.066-2.985-1.354-3.547-2.586c-1.02-2.239-1.535-4.794-1.871-7.271
		C102.29,102.104,102.275,99.025,102.093,95.969z M106.704,111.627c0.548-0.013,1.09-0.028,1.636-0.04
		c1.238-5.075,0.654-10.232,0.144-15.371c-0.02-0.256-0.854-0.622-1.268-0.58c-0.404,0.049-1.086,0.571-1.076,0.868
		C106.274,101.546,106.497,106.587,106.704,111.627z M100.911,76.836c0.418,1.283,1.422,2.68,3.368,2.779
		c2.509,0.133,3.911-1.473,4.909-3.704C106.327,76.23,103.826,76.511,100.911,76.836z M111.182,65.619
		c-0.211,0.215-0.424,0.432-0.637,0.645c1.547,0.798,3.115,2.259,4.627,2.194c1.322-0.057,2.574-1.83,4.258-3.159
		C116.023,65.433,113.604,65.527,111.182,65.619z M114.92,75.981c-0.232,0.187-0.467,0.374-0.699,0.557
		c1.496,0.828,3.004,2.306,4.492,2.284c1.334-0.017,2.646-1.681,4.602-3.063C119.732,75.853,117.332,75.917,114.92,75.981z
		 M121.857,55.403c0.645,1.876,2.086,3.424,4.342,2.822c1.354-0.358,2.412-1.913,3.922-3.205
		C126.846,55.172,124.521,55.279,121.857,55.403z M105.762,55.809c-0.219,0.18-0.432,0.361-0.65,0.542
		c1.489,0.833,2.988,2.326,4.467,2.306c1.341-0.021,2.662-1.689,4.56-3.033C110.609,55.7,108.185,55.754,105.762,55.809z"/>
	<path fill="#FFFFFF" d="M97.506,55.897c0.271,0.695,1.033,1.742,0.951,2.712c-0.11,1.291-0.877,2.523-1.361,3.78
		c-1.037-0.485-2.078-0.946-3.102-1.454c-0.861-0.431-1.707-0.909-2.56-1.362c-0.372,0.818-0.711,1.656-1.123,2.455
		c-0.509,0.981-1.101,2.757-1.607,2.736c-1.226-0.043-3.122-0.624-3.492-1.534c-1.229-3-2.437-6.208-2.62-9.401
		c-0.17-2.955,2.851-3.252,5.017-3.263C91.574,50.548,94.753,52.506,97.506,55.897z"/>
	<path fill="#FFFFFF" d="M128.438,73.797c3.248-7.248,5.637-14.47,6.365-22.257c0.066-0.703,0.779-1.881,1.225-1.898
		c0.963-0.036,2.455,0.253,2.814,0.925c0.775,1.464,1.369,3.256,1.35,4.907c-0.063,4.715-1.912,8.785-5.189,12.09
		C132.875,69.708,130.631,71.725,128.438,73.797z"/>
	<path fill="#FFFFFF" d="M86.698,68.109c2.348-1.097,4.266-1.992,6.405-2.99c1.746-0.142,3.926-0.318,6.41-0.521
		c-0.089,3.664-1.264,7.338-3.921,10.295c-2.133,2.378-4.722,1.829-6.257-1.011c-0.78-1.445-1.468-2.939-2.164-4.432
		C86.907,68.881,86.751,68.258,86.698,68.109z"/>
	<path fill="#FFFFFF" d="M99.319,27.18c-1.369-1.992-0.911-4.814,1.106-6.106c1.979-1.267,3.889-1.221,5.381,0.86
		c1.479,2.063,0.944,5.1-1.066,6.441C102.998,29.535,100.572,29,99.319,27.18z"/>
	<path fill="#FFFFFF" d="M123.105,23.434c1.363,1.928,0.943,4.788-0.912,6.206c-1.762,1.353-4.535,0.898-5.656-1.1
		c-1.199-2.145-1.104-4.268,0.912-5.923C119.313,21.085,121.719,21.478,123.105,23.434z"/>
	<path fill="#FFFFFF" d="M113.566,28.419c-0.953,2.659-1.641,4.58-2.326,6.5c-0.277,0.032-0.553,0.062-0.836,0.093
		c-0.651-2.05-1.302-4.099-2.128-6.692C110.18,28.355,111.482,28.379,113.566,28.419z"/>
	<path fill="#FFFFFF" d="M54.227,84.287c-4.34,0.298-8.181,0.574-11.97,0.958c-0.5,0.053-1.221,0.033-1.217,0.08l0.005,0.066
		c0.01,0.166-4.81,1.844-4.792,3.666c0.008,1.824-0.253,3.5,2.747,3.616v0.068c0,0.209,1.872,0.178,2.437,0.215
		c3.807,0.253,8.319,0.505,12.68,0.652c4.359,0.138,9.148,0.223,13.904,0.117c2.379-0.058,4.876-0.138,7.324-0.266
		c2.434-0.132,4.961-0.305,7.444-0.464c4.979-0.345,10.065-0.679,15.126-0.926c5.059-0.242,10.141-0.468,15.126-0.728
		c4.975-0.242,9.891-0.522,14.621-0.782c4.754-0.278,9.349-0.523,13.692-0.794c4.35-0.266,8.459-0.52,12.26-0.754
		c3.797-0.225,7.273-0.47,10.354-0.658c3.084-0.198,5.775-0.378,7.99-0.532c4.426-0.307,6.951-0.499,6.951-0.499l-0.029-0.962
		c0,0-2.535-0.101-6.977-0.253c-2.223-0.083-4.916-0.171-8.01-0.263c-3.086-0.097-6.58-0.218-10.389-0.313
		c-3.803-0.098-7.92-0.213-12.273-0.331c-4.371-0.119-8.957-0.215-13.721-0.329c-4.756-0.086-9.672-0.201-14.656-0.273
		c-4.994-0.096-10.067-0.148-15.138-0.221c-5.064-0.057-10.152-0.234-15.136-0.408c-2.504-0.076-4.972-0.166-7.424-0.215
		c-2.445-0.038-4.871-0.063-7.239-0.038C63.171,83.781,58.576,83.999,54.227,84.287z M71.916,88.69
		c0.01,1.183-5.913,2.188-13.224,2.235c-7.299,0.064-13.235-0.842-13.238-2.032c-0.018-1.183,5.902-2.19,13.211-2.246
		C65.971,86.602,71.898,87.507,71.916,88.69z"/>
</g>
<g>
	<g>
		<path fill="#FFFFFF" d="M21.169,154.973c0.428,0,0.803-0.108,1.124-0.324c0.32-0.216,0.546-0.694,0.68-1.434
			c0.134-0.741,0.289-1.189,0.461-1.344c0.173-0.154,0.384-0.23,0.627-0.23c0.173,0,0.354,0.099,0.541,0.297
			c0.185,0.199,0.277,0.466,0.277,0.802c0,1.079,0.069,2.158,0.209,3.239c0,0.671-0.301,0.975-0.904,0.913
			c-0.396-0.051-1.005-0.075-1.828-0.075H8.796c-1.067,0-1.601-0.295-1.601-0.886c0-0.387,0.096-0.635,0.288-0.741
			s0.483-0.166,0.879-0.18c0.754-0.048,1.223-0.263,1.409-0.642c0.187-0.378,0.28-0.811,0.28-1.294v-19.533
			c0-0.458-0.106-0.872-0.314-1.237c-0.208-0.367-0.663-0.668-1.366-0.903c-0.702-0.235-1.125-0.455-1.271-0.658
			c-0.144-0.202-0.217-0.433-0.217-0.689c0-0.148,0.086-0.293,0.26-0.433c0.174-0.141,0.383-0.212,0.626-0.212
			c0.162,0,0.553,0.114,1.173,0.345c0.619,0.23,1.304,0.344,2.058,0.344c0.939,0,1.825-0.127,2.658-0.382
			c0.833-0.254,1.373-0.382,1.616-0.382c0.267,0,0.5,0.102,0.703,0.305c0.204,0.203,0.305,0.427,0.305,0.673
			c0,0.21-0.06,0.385-0.183,0.525c-0.122,0.142-0.438,0.268-0.948,0.377c-0.65,0.138-1.108,0.323-1.376,0.559
			c-0.452,0.41-0.679,1.105-0.679,2.086v18.64c0,0.93,0.137,1.575,0.411,1.936c0.272,0.36,0.671,0.54,1.195,0.54H21.169z"/>
		<path fill="#FFFFFF" d="M28.334,127.807c0.519,0,0.972,0.285,1.359,0.855c0.387,0.573,0.58,1.292,0.58,2.161
			c0,1.117-0.28,2.172-0.844,3.165c-0.563,0.994-0.965,1.49-1.209,1.49c-0.094,0-0.177-0.047-0.252-0.141
			c-0.076-0.095-0.114-0.188-0.114-0.288c0-0.148,0.144-0.533,0.431-1.155c0.287-0.62,0.429-1.203,0.429-1.749
			c0-0.248-0.172-0.422-0.519-0.521c-1.214-0.322-1.82-0.975-1.82-1.956c0-0.545,0.182-0.993,0.545-1.341
			C27.285,127.981,27.755,127.807,28.334,127.807z"/>
		<path fill="#FFFFFF" d="M44.162,153.338c0,0.892,0.558,1.512,1.671,1.859c0.279,0.087,0.484,0.188,0.619,0.301
			c0.133,0.114,0.2,0.327,0.2,0.641c0,0.164-0.09,0.306-0.27,0.425c-0.181,0.119-0.374,0.179-0.583,0.179
			c-0.221,0-0.52-0.056-0.897-0.168c-0.377-0.111-0.681-0.167-0.913-0.167c-0.269,0-0.604,0.056-1.009,0.167
			c-0.406,0.112-0.679,0.168-0.818,0.168c-0.164,0-0.323-0.063-0.479-0.188c-0.157-0.123-0.235-0.246-0.235-0.37
			c0-0.199-0.058-0.3-0.172-0.3c-0.083,0-0.188,0.045-0.315,0.131c-1.31,0.869-2.726,1.303-4.247,1.303
			c-0.719,0-1.521-0.198-2.409-0.595c-0.887-0.396-1.599-1.009-2.132-1.833c-0.536-0.827-0.801-1.848-0.801-3.063
			c0-1.292,0.575-2.434,1.728-3.427s2.638-1.49,4.456-1.49c0.614,0,1.29,0.184,2.024,0.55c0.736,0.365,1.104,0.742,1.104,1.126
			c0,0.187-0.076,0.336-0.227,0.446c-0.15,0.111-0.336,0.169-0.556,0.169c-0.151,0-0.447-0.112-0.888-0.334
			c-0.44-0.225-0.894-0.337-1.356-0.337c-0.953,0-1.741,0.3-2.367,0.901c-0.627,0.601-0.94,1.401-0.94,2.404
			c0,1.164,0.359,2.059,1.078,2.683c0.72,0.627,1.549,0.938,2.489,0.938c0.847,0,1.628-0.298,2.341-0.894
			c0.714-0.595,1.071-1.391,1.071-2.383v-5.046c0-0.758-0.236-1.372-0.704-1.844c-0.47-0.472-1.098-0.708-1.884-0.708
			c-1.007,0-1.984,0.342-2.934,1.023c-0.324,0.238-0.545,0.355-0.66,0.355c-0.278,0-0.516-0.078-0.712-0.234
			c-0.197-0.154-0.295-0.356-0.295-0.604c0-0.608,0.518-1.124,1.557-1.545c1.038-0.423,2.172-0.634,3.402-0.634
			c1.521,0,2.746,0.41,3.673,1.227c0.929,0.819,1.392,1.793,1.392,2.92V153.338z"/>
		<path fill="#FFFFFF" d="M53.075,152.384c0,1.043,0.044,1.71,0.137,2.002s0.258,0.438,0.5,0.438c0.378,0,0.841-0.224,1.392-0.671
			c0.55-0.446,0.92-0.67,1.11-0.67c0.153,0,0.289,0.076,0.408,0.227c0.118,0.151,0.178,0.334,0.178,0.547
			c0,0.354-0.456,0.928-1.367,1.722c-0.911,0.794-1.715,1.191-2.411,1.191c-1.833,0-2.75-1.437-2.75-4.313V145.7
			c0-0.236-0.029-0.363-0.087-0.382s-0.383-0.027-0.973-0.027c-0.467,0-0.78-0.073-0.941-0.218
			c-0.163-0.144-0.244-0.354-0.244-0.632c0-0.237,0.061-0.407,0.184-0.509c0.12-0.1,0.358-0.204,0.713-0.309
			c0.354-0.105,0.626-0.23,0.817-0.372c0.192-0.143,0.458-0.442,0.802-0.894c0.341-0.453,0.586-1.09,0.73-1.908
			c0.145-0.82,0.218-2,0.218-3.537c0-0.733,0.188-1.1,0.563-1.1c0.423,0,0.686,0.101,0.792,0.307s0.159,0.549,0.159,1.034v6.218
			c0,0.249,0.15,0.373,0.452,0.373h2.472c0.498,0,0.748,0.232,0.748,0.697c0,0.54-0.359,0.812-1.079,0.812h-2.176
			c-0.161,0-0.261,0.027-0.294,0.083c-0.036,0.057-0.053,0.196-0.053,0.42V152.384z"/>
		<path fill="#FFFFFF" d="M69.242,149.219c0.268,0,0.447-0.048,0.54-0.146c0.094-0.1,0.14-0.278,0.14-0.536
			c0-0.948-0.345-1.835-1.036-2.659c-0.69-0.825-1.73-1.238-3.123-1.238c-0.964,0-1.958,0.49-2.985,1.468
			c-1.027,0.98-1.541,2.367-1.541,4.165c0,1.314,0.543,2.493,1.625,3.541c1.083,1.047,2.297,1.57,3.641,1.57
			c1.02,0,2.12-0.342,3.301-1.023c0.452-0.262,0.747-0.391,0.886-0.391c0.209,0,0.374,0.063,0.496,0.188
			c0.121,0.126,0.182,0.283,0.182,0.472c0,0.453-0.641,1.004-1.923,1.648c-1.283,0.646-2.602,0.968-3.96,0.968
			c-2.007,0-3.697-0.732-5.065-2.196c-1.369-1.465-2.053-3.209-2.053-5.232c0-1.85,0.751-3.432,2.254-4.748s3.187-1.974,5.056-1.974
			c2.424,0,4.24,0.664,5.446,1.992c1.207,1.329,1.811,2.916,1.811,4.768c0,0.396-0.093,0.642-0.278,0.734
			c-0.187,0.095-0.528,0.14-1.024,0.14h-7.975c-0.65,0-0.974-0.258-0.974-0.772c0-0.49,0.336-0.736,1.009-0.736H69.242z"/>
		<path fill="#FFFFFF" d="M79.268,153.931c0,0.334,0.082,0.621,0.244,0.855c0.164,0.237,0.524,0.403,1.08,0.504
			c0.557,0.1,0.896,0.225,1.018,0.375c0.121,0.151,0.182,0.339,0.182,0.565c0,0.403-0.284,0.605-0.853,0.605
			c-0.351,0-0.866-0.047-1.554-0.141c-0.686-0.094-1.204-0.141-1.553-0.141c-0.325,0-0.802,0.047-1.43,0.141
			c-0.628,0.094-1.104,0.141-1.43,0.141c-0.466,0-0.765-0.058-0.898-0.171c-0.134-0.113-0.2-0.271-0.2-0.471
			c0-0.202,0.055-0.373,0.165-0.512c0.11-0.137,0.458-0.253,1.044-0.346c0.585-0.095,0.968-0.299,1.148-0.615
			c0.181-0.315,0.27-0.685,0.27-1.106v-20.076c0-0.433-0.093-0.813-0.277-1.143c-0.186-0.329-0.569-0.568-1.149-0.717
			c-0.581-0.148-0.926-0.3-1.036-0.449c-0.11-0.152-0.165-0.321-0.165-0.511c0-0.188,0.095-0.34,0.287-0.453s0.392-0.17,0.602-0.17
			c0.186,0,0.463,0.038,0.83,0.111c0.366,0.075,0.638,0.112,0.812,0.112c0.198,0,0.495-0.037,0.891-0.112
			c0.394-0.073,0.691-0.111,0.889-0.111c0.372,0,0.646,0.105,0.822,0.316c0.174,0.213,0.26,0.59,0.26,1.136V153.931z"/>
		<path fill="#FFFFFF" d="M88.964,153.596c0,0.608,0.103,1.005,0.312,1.19c0.209,0.187,0.488,0.309,0.835,0.363
			c0.349,0.057,0.594,0.135,0.74,0.235c0.144,0.101,0.217,0.309,0.217,0.621c0,0.417-0.337,0.626-1.012,0.626
			c-0.292,0-0.727-0.039-1.31-0.113c-0.581-0.074-1.012-0.111-1.291-0.111c-0.28,0-0.688,0.049-1.222,0.147
			c-0.535,0.101-0.937,0.15-1.204,0.15c-0.269,0-0.497-0.081-0.689-0.245c-0.193-0.164-0.289-0.377-0.289-0.642
			c0-0.163,0.053-0.305,0.157-0.423c0.105-0.12,0.372-0.217,0.801-0.293c0.43-0.072,0.729-0.222,0.897-0.445
			c0.168-0.223,0.251-0.761,0.251-1.616v-6.282c0-0.532-0.104-0.886-0.313-1.059c-0.21-0.174-0.516-0.305-0.922-0.392
			c-0.408-0.087-0.66-0.199-0.759-0.337c-0.098-0.139-0.147-0.308-0.147-0.509c0-0.228,0.084-0.412,0.253-0.556
			c0.17-0.145,0.37-0.217,0.604-0.217c0.197,0,0.479,0.045,0.846,0.139c0.367,0.093,0.639,0.141,0.813,0.141
			c0.198,0,0.5-0.035,0.908-0.104c0.408-0.068,0.711-0.102,0.909-0.102c0.431,0,0.646,0.385,0.646,1.153
			c0,0.125-0.005,0.288-0.017,0.493c-0.011,0.205-0.016,0.346-0.016,0.419V153.596z M87.544,137.434c0.531,0,0.99,0.208,1.376,0.62
			c0.388,0.415,0.582,0.905,0.582,1.473c0,0.508-0.191,0.938-0.573,1.288c-0.38,0.353-0.831,0.528-1.351,0.528
			s-0.967-0.194-1.343-0.583c-0.376-0.391-0.563-0.856-0.563-1.399c0-0.52,0.187-0.97,0.563-1.354
			C86.612,137.624,87.047,137.434,87.544,137.434z"/>
		<path fill="#FFFFFF" d="M103.495,149.219c0.267,0,0.447-0.048,0.54-0.146c0.094-0.1,0.139-0.278,0.139-0.536
			c0-0.948-0.344-1.835-1.036-2.659c-0.689-0.825-1.731-1.238-3.123-1.238c-0.964,0-1.959,0.49-2.985,1.468
			c-1.028,0.98-1.541,2.367-1.541,4.165c0,1.314,0.542,2.493,1.624,3.541c1.084,1.047,2.297,1.57,3.641,1.57
			c1.02,0,2.12-0.342,3.301-1.023c0.453-0.262,0.747-0.391,0.885-0.391c0.209,0,0.374,0.063,0.496,0.188
			c0.122,0.126,0.183,0.283,0.183,0.472c0,0.453-0.641,1.004-1.923,1.648c-1.282,0.646-2.602,0.968-3.96,0.968
			c-2.007,0-3.695-0.732-5.065-2.196c-1.369-1.465-2.052-3.209-2.052-5.232c0-1.85,0.751-3.432,2.253-4.748
			c1.503-1.316,3.188-1.974,5.056-1.974c2.425,0,4.241,0.664,5.448,1.992c1.207,1.329,1.81,2.916,1.81,4.768
			c0,0.396-0.092,0.642-0.279,0.734c-0.186,0.095-0.526,0.14-1.024,0.14h-7.975c-0.649,0-0.973-0.258-0.973-0.772
			c0-0.49,0.336-0.736,1.009-0.736H103.495z"/>
		<path fill="#FFFFFF" d="M113.451,147.487l0.069,0.521c0.058,0,0.331-0.59,0.819-1.768c0.486-1.18,0.969-2.018,1.447-2.515
			c0.479-0.496,0.974-0.744,1.486-0.744c0.396,0,0.698,0.076,0.902,0.225c0.203,0.15,0.305,0.319,0.305,0.507
			c0,0.326-0.068,0.586-0.209,0.779c-0.141,0.195-0.385,0.435-0.734,0.723c-1.477,1.197-2.546,2.654-3.203,4.372
			c-0.658,1.716-0.988,3.141-0.988,4.278c0,0.529,0.066,0.892,0.2,1.083s0.456,0.351,0.968,0.48c0.51,0.131,0.84,0.271,0.991,0.422
			c0.149,0.151,0.227,0.327,0.227,0.529c0,0.364-0.204,0.548-0.61,0.548c-0.326,0-0.776-0.057-1.354-0.168
			c-0.574-0.111-1.193-0.168-1.856-0.168c-0.444,0-0.892,0.057-1.346,0.168c-0.452,0.111-0.743,0.168-0.872,0.168
			c-0.325,0-0.587-0.066-0.785-0.199c-0.197-0.133-0.296-0.3-0.296-0.501c0-0.15,0.054-0.286,0.165-0.405
			c0.11-0.119,0.421-0.271,0.931-0.458c0.509-0.186,0.824-0.369,0.939-0.556c0.117-0.185,0.175-0.765,0.175-1.74v-5.647
			c0-0.357-0.079-0.679-0.235-0.963s-0.469-0.503-0.94-0.657c-0.469-0.154-0.748-0.288-0.835-0.402
			c-0.086-0.113-0.13-0.239-0.13-0.379c0-0.416,0.274-0.624,0.821-0.624c0.15,0,0.404,0.032,0.759,0.093
			c0.354,0.063,0.603,0.094,0.743,0.094c0.115,0,0.306-0.025,0.567-0.074c0.263-0.05,0.573-0.074,0.935-0.074
			c0.629,0,0.943,0.713,0.943,2.14V147.487z"/>
	</g>
	<g>
		<g>
			<path fill="#FFFFFF" d="M143.51,152.45c0,0.609,0.115,1.164,0.348,1.667c0.232,0.501,0.649,0.864,1.254,1.088
				c0.604,0.223,0.951,0.385,1.043,0.485c0.092,0.102,0.141,0.216,0.141,0.341c0,0.541-0.268,0.812-0.805,0.812
				c-0.174,0-0.419-0.05-0.732-0.149c-0.314-0.1-0.722-0.147-1.223-0.147c-0.338,0-0.707,0.048-1.108,0.147s-0.655,0.149-0.76,0.149
				c-0.222,0-0.407-0.087-0.558-0.26c-0.152-0.175-0.236-0.354-0.254-0.54s-0.055-0.279-0.113-0.279l-0.277,0.129
				c-1.761,1.068-3.246,1.603-4.451,1.603c-1.713,0-3.258-0.702-4.631-2.104c-1.371-1.402-2.059-3.011-2.059-4.823
				c0-2.072,0.694-3.778,2.086-5.119c1.391-1.342,3.007-2.012,4.848-2.012c0.775,0,1.574,0.208,2.397,0.619
				c0.823,0.415,1.233,0.874,1.233,1.379c0,0.16-0.055,0.295-0.165,0.408c-0.11,0.109-0.234,0.164-0.373,0.164
				c-0.173,0-0.575-0.152-1.206-0.456c-0.633-0.305-1.213-0.457-1.746-0.457c-1.169,0-2.158,0.522-2.969,1.566
				c-0.811,1.045-1.216,2.288-1.216,3.731c0,1.23,0.367,2.449,1.104,3.656c0.734,1.206,1.738,1.81,3.013,1.81
				c0.683,0,1.467-0.202,2.353-0.605c0.887-0.404,1.45-0.949,1.693-1.638c0.243-0.689,0.365-1.734,0.365-3.135v-16.002
				c0-1.029-0.162-1.742-0.486-2.139c-0.326-0.396-0.796-0.696-1.411-0.894c-0.614-0.199-0.991-0.349-1.131-0.449
				s-0.209-0.265-0.209-0.491c0-0.164,0.087-0.305,0.261-0.426c0.174-0.119,0.419-0.18,0.734-0.18c0.127,0,0.4,0.032,0.821,0.094
				c0.418,0.062,0.755,0.093,1.011,0.093c0.535,0,0.998-0.023,1.389-0.075c0.389-0.049,0.624-0.073,0.706-0.073
				c0.419,0,0.699,0.127,0.838,0.381c0.141,0.255,0.21,0.605,0.21,1.052c0,0.819,0.006,1.476,0.018,1.973
				c0.011,0.495,0.018,0.938,0.018,1.32V152.45z"/>
			<path fill="#FFFFFF" d="M149.436,127.833c0.52,0,0.973,0.286,1.361,0.856c0.386,0.571,0.579,1.292,0.579,2.159
				c0,1.118-0.28,2.174-0.843,3.166c-0.564,0.993-0.967,1.49-1.211,1.49c-0.092,0-0.176-0.047-0.251-0.14
				c-0.077-0.094-0.114-0.188-0.114-0.288c0-0.15,0.145-0.535,0.43-1.155c0.287-0.62,0.432-1.203,0.432-1.75
				c0-0.248-0.175-0.421-0.521-0.521c-1.213-0.322-1.818-0.976-1.818-1.956c0-0.545,0.181-0.991,0.545-1.341
				C148.388,128.007,148.858,127.833,149.436,127.833z"/>
			<path fill="#FFFFFF" d="M166.271,155.148c0.594,0,1.043-0.167,1.351-0.5c0.309-0.333,0.462-0.759,0.462-1.277
				c0-0.469,0.1-0.843,0.297-1.12c0.196-0.277,0.429-0.417,0.695-0.417c0.268,0,0.49,0.131,0.67,0.392
				c0.182,0.26,0.271,0.609,0.271,1.042c0,0.436,0.017,0.903,0.052,1.406s0.053,0.848,0.053,1.033c0,0.51-0.066,0.842-0.2,0.997
				c-0.134,0.154-0.479,0.232-1.036,0.232h-14.08c-0.984,0-1.661-0.08-2.027-0.239c-0.365-0.16-0.549-0.399-0.549-0.719
				c0-0.503,0.33-0.755,0.993-0.755c0.845,0,1.397-0.146,1.653-0.438c0.255-0.291,0.383-0.754,0.383-1.387V136.36
				c0-1.836-0.029-3.053-0.088-3.648c-0.058-0.596-0.201-0.978-0.436-1.146c-0.232-0.168-0.695-0.252-1.391-0.252
				c-0.419,0-0.74-0.084-0.967-0.254c-0.227-0.169-0.34-0.386-0.34-0.649c0-0.237,0.098-0.448,0.295-0.63
				c0.199-0.181,0.447-0.271,0.75-0.271h13.4c0.535,0,0.883,0.117,1.045,0.354c0.162,0.235,0.281,0.584,0.357,1.042
				c0.075,0.461,0.113,1.217,0.113,2.271c0,0.484-0.191,0.726-0.574,0.726c-0.222,0-0.415-0.071-0.584-0.214
				c-0.168-0.144-0.354-0.507-0.558-1.088c-0.202-0.582-0.413-0.954-0.628-1.116c-0.215-0.163-0.462-0.243-0.741-0.243h-4.778
				c-0.803,0-1.309,0.121-1.518,0.363s-0.314,0.607-0.314,1.092v3.938c0,0.921,0.116,1.527,0.35,1.82
				c0.232,0.292,0.703,0.438,1.412,0.438h4.641c0.385,0,0.675-0.162,0.873-0.492c0.197-0.33,0.296-0.698,0.296-1.108
				c0-0.211,0.081-0.388,0.244-0.53c0.161-0.144,0.353-0.215,0.573-0.215c0.233,0,0.424,0.081,0.574,0.242
				c0.152,0.161,0.227,0.391,0.227,0.687c0,0.26-0.037,0.635-0.113,1.124c-0.075,0.488-0.113,0.888-0.113,1.197
				c0,0.47,0.05,0.966,0.149,1.485c0.098,0.52,0.147,0.836,0.147,0.947c0,0.284-0.086,0.52-0.262,0.706
				c-0.174,0.186-0.376,0.277-0.609,0.277c-0.243,0-0.445-0.113-0.607-0.344c-0.164-0.23-0.244-0.544-0.244-0.94
				c0-0.473-0.116-0.807-0.35-1.005c-0.232-0.198-0.615-0.299-1.152-0.299h-4.604c-0.419,0-0.763,0.09-1.029,0.27
				c-0.268,0.181-0.402,0.444-0.402,0.793v11.897c0,0.62,0.149,1.037,0.445,1.248c0.295,0.21,0.805,0.315,1.525,0.315H166.271z"/>
			<path fill="#FFFFFF" d="M173.271,138.466c0-1.39,0.135-2.53,0.4-3.418c0.268-0.888,0.719-1.712,1.354-2.476
				c0.633-0.764,1.365-1.422,2.19-1.975c0.826-0.551,1.36-0.828,1.605-0.828c0.164,0,0.245,0.247,0.245,0.738
				c0,0.063-0.109,0.19-0.33,0.379c-1.033,0.83-1.74,1.847-2.125,3.05c-0.381,1.201-0.574,2.529-0.574,3.979v6.042
				c0,0.149,0.094,0.223,0.281,0.223c0.08,0,0.277-0.018,0.589-0.055c0.315-0.037,0.615-0.056,0.907-0.056
				c0.672,0,1.009,0.243,1.009,0.734c0,0.238-0.11,0.428-0.331,0.566s-0.48,0.208-0.782,0.208c-1.114,0-1.673,0.481-1.673,1.442
				v6.445c0,0.616,0.053,0.995,0.157,1.138s0.24,0.297,0.409,0.463c0.168,0.167,0.529,0.287,1.08,0.36
				c0.551,0.075,0.891,0.176,1.018,0.301c0.128,0.126,0.192,0.289,0.192,0.49c0,0.491-0.337,0.735-1.013,0.735
				c-0.396,0-0.893-0.063-1.49-0.185c-0.601-0.124-1.195-0.187-1.788-0.187c-0.373,0-0.899,0.063-1.579,0.187
				c-0.681,0.122-1.108,0.185-1.282,0.185c-0.732,0-1.097-0.27-1.097-0.811c0-0.177,0.051-0.32,0.155-0.434
				c0.104-0.112,0.406-0.204,0.905-0.271c0.498-0.069,0.863-0.185,1.096-0.352c0.232-0.168,0.368-0.377,0.409-0.631
				c0.04-0.254,0.062-0.787,0.062-1.601v-5.944c0-0.889-0.518-1.332-1.55-1.332c-0.8,0-1.201-0.271-1.201-0.812
				c0-0.489,0.407-0.734,1.219-0.734c0.289,0,0.568,0.018,0.835,0.056c0.268,0.037,0.43,0.056,0.488,0.056
				c0.139,0,0.209-0.074,0.209-0.224V138.466z"/>
			<path fill="#FFFFFF" d="M194.123,154.255c0.252,0.311,0.568,0.465,0.949,0.465c0.218,0,0.477-0.186,0.776-0.558
				c0.299-0.372,0.544-0.559,0.733-0.559c0.178,0,0.332,0.089,0.469,0.268c0.137,0.181,0.205,0.369,0.205,0.565
				c0,0.63-0.322,1.249-0.961,1.862c-0.641,0.611-1.257,0.918-1.852,0.918c-0.535,0-1.166-0.28-1.893-0.836
				c-0.729-0.558-1.795-1.728-3.199-3.51c-1.013-1.287-1.629-1.931-1.848-1.931c-0.082,0-0.238,0.122-0.469,0.363
				c-0.232,0.241-0.48,0.494-0.746,0.754c-0.266,0.261-0.415,0.465-0.443,0.615c-0.029,0.147-0.043,0.59-0.043,1.32
				c0,0.337,0.078,0.622,0.234,0.857c0.158,0.236,0.505,0.394,1.045,0.475c0.539,0.082,0.871,0.199,0.993,0.357
				c0.121,0.157,0.183,0.349,0.183,0.576c0,0.189-0.053,0.334-0.158,0.443c-0.104,0.107-0.337,0.16-0.697,0.16
				c-0.35,0-0.867-0.047-1.552-0.141c-0.688-0.092-1.204-0.139-1.554-0.139c-0.324,0-0.801,0.047-1.43,0.139
				c-0.629,0.094-1.105,0.141-1.43,0.141c-0.734,0-1.1-0.238-1.1-0.718c0-0.225,0.057-0.411,0.174-0.556s0.467-0.25,1.053-0.318
				c0.588-0.068,0.967-0.257,1.141-0.567c0.174-0.312,0.261-0.677,0.261-1.099v-20.261c0-0.349-0.083-0.645-0.253-0.893
				c-0.168-0.249-0.543-0.447-1.122-0.596c-0.581-0.15-0.935-0.299-1.061-0.45c-0.128-0.15-0.192-0.333-0.192-0.547
				c0-0.189,0.099-0.346,0.297-0.472c0.199-0.124,0.395-0.188,0.594-0.188c0.197,0,0.498,0.055,0.899,0.168
				c0.401,0.111,0.719,0.166,0.951,0.166c0.257,0,0.576-0.043,0.96-0.129c0.383-0.087,0.641-0.131,0.77-0.131
				c0.232,0,0.406,0.063,0.522,0.186c0.141,0.148,0.247,0.481,0.323,0.997c0.076,0.515,0.113,1.586,0.113,3.21v14.674
				c0,0.312,0.104,0.466,0.314,0.466c0.139,0,0.609-0.438,1.408-1.316l2.299-2.521c0.127-0.122,0.189-0.228,0.189-0.315
				c0-0.073-0.137-0.172-0.416-0.29c-0.279-0.12-0.418-0.305-0.418-0.557c0-0.263,0.055-0.458,0.164-0.583
				c0.109-0.126,0.346-0.188,0.704-0.188c0.231,0,0.581,0.026,1.05,0.082c0.469,0.058,0.832,0.085,1.085,0.085
				c0.313,0,0.79-0.04,1.433-0.121s1.12-0.121,1.434-0.121c0.334,0,0.627,0.075,0.876,0.227c0.249,0.15,0.373,0.357,0.373,0.622
				c0,0.489-0.429,0.734-1.288,0.734c-1.264,0-2.134,0.11-2.609,0.332c-0.477,0.224-1.014,0.654-1.615,1.297
				c-0.604,0.642-0.939,1.009-1.008,1.101c-0.068,0.094-0.104,0.22-0.104,0.379c0,0.312,0.134,0.616,0.399,0.913L194.123,154.255z"
				/>
			<path fill="#FFFFFF" d="M210.83,153.364c0,0.893,0.557,1.513,1.672,1.859c0.277,0.088,0.484,0.188,0.617,0.301
				c0.133,0.114,0.201,0.327,0.201,0.641c0,0.164-0.092,0.305-0.271,0.424c-0.181,0.121-0.374,0.181-0.583,0.181
				c-0.221,0-0.52-0.058-0.896-0.169s-0.682-0.167-0.914-0.167c-0.267,0-0.602,0.056-1.009,0.167
				c-0.408,0.111-0.679,0.169-0.819,0.169c-0.161,0-0.32-0.063-0.479-0.187c-0.155-0.125-0.234-0.249-0.234-0.374
				c0-0.197-0.058-0.297-0.174-0.297c-0.082,0-0.186,0.044-0.313,0.131c-1.312,0.869-2.728,1.303-4.247,1.303
				c-0.72,0-1.522-0.198-2.41-0.595c-0.887-0.398-1.599-1.01-2.131-1.836c-0.536-0.823-0.802-1.846-0.802-3.063
				c0-1.291,0.575-2.434,1.729-3.425c1.151-0.993,2.638-1.491,4.457-1.491c0.612,0,1.286,0.185,2.022,0.55
				c0.736,0.366,1.104,0.742,1.104,1.126c0,0.188-0.076,0.336-0.227,0.447c-0.15,0.112-0.336,0.169-0.557,0.169
				c-0.152,0-0.445-0.112-0.889-0.336c-0.44-0.223-0.893-0.335-1.356-0.335c-0.951,0-1.739,0.3-2.366,0.9
				c-0.628,0.601-0.939,1.402-0.939,2.404c0,1.164,0.359,2.06,1.078,2.685s1.549,0.937,2.488,0.937c0.847,0,1.628-0.297,2.342-0.894
				c0.713-0.597,1.07-1.389,1.07-2.383v-5.047c0-0.757-0.234-1.372-0.703-1.843c-0.469-0.472-1.098-0.707-1.885-0.707
				c-1.006,0-1.984,0.341-2.935,1.023c-0.323,0.236-0.544,0.354-0.659,0.354c-0.277,0-0.514-0.077-0.713-0.232
				c-0.196-0.155-0.293-0.355-0.293-0.605c0-0.607,0.518-1.123,1.557-1.545c1.037-0.421,2.172-0.634,3.402-0.634
				c1.521,0,2.744,0.411,3.672,1.228c0.928,0.818,1.393,1.79,1.393,2.919V153.364z"/>
		</g>
	</g>
</g>
<path fill="#FFFFFF" d="M168.83,197.25c-16.559,12-37.148,19.914-59.441,19.914c-22.294,0-42.884-7.914-59.442-19.914h-4.748
	c17.53,14,39.874,22.852,64.19,22.852c24.316,0,46.66-8.852,64.189-22.852H168.83z"/>
<path fill="#FFFFFF" d="M70.098,33.899l-1.257-2.654c-2.231,1.057-4.451,2.216-6.602,3.45l1.463,2.547
	C65.786,36.048,67.937,34.924,70.098,33.899z"/>
<path fill="#FFFFFF" d="M167.461,42.028c-1.959-1.521-4.002-2.979-6.066-4.334l-1.613,2.453c2.002,1.315,3.98,2.729,5.879,4.201
	L167.461,42.028z"/>
<path fill="#FFFFFF" d="M195.197,76.589c-1.057-2.24-2.213-4.464-3.439-6.606l-2.549,1.457c1.188,2.076,2.307,4.23,3.33,6.401
	L195.197,76.589z"/>
<path fill="#FFFFFF" d="M200.457,90.529c-0.688-2.377-1.479-4.758-2.354-7.075l-2.748,1.038c0.848,2.245,1.613,4.55,2.279,6.853
	L200.457,90.529z"/>
<path fill="#FFFFFF" d="M155.008,33.847c-2.166-1.192-4.412-2.313-6.672-3.335l-1.207,2.676c2.188,0.99,4.363,2.077,6.463,3.233
	L155.008,33.847z"/>
<path fill="#FFFFFF" d="M187.811,63.663c-1.387-2.039-2.881-4.054-4.436-5.988l-2.289,1.838c1.506,1.876,2.953,3.828,4.297,5.804
	L187.811,63.663z"/>
<path fill="#FFFFFF" d="M57.586,41.08l-1.656-2.425c-2.042,1.396-4.056,2.893-5.983,4.445l1.846,2.288
	C53.66,43.883,55.609,42.433,57.586,41.08z"/>
<path fill="#FFFFFF" d="M176.344,54.062l2.141-2.012c-1.689-1.799-3.48-3.557-5.316-5.226l-1.975,2.174
	C172.973,50.615,174.707,52.319,176.344,54.062z"/>
<path fill="#FFFFFF" d="M200.545,105.481l2.916-0.363c-0.307-2.451-0.715-4.925-1.213-7.354l-2.877,0.592
	C199.855,100.71,200.25,103.106,200.545,105.481z"/>
<path fill="#FFFFFF" d="M121.4,208.064l0.381,2.913c2.453-0.321,4.926-0.744,7.346-1.257l-0.607-2.874
	C126.174,207.344,123.779,207.754,121.4,208.064z"/>
<path fill="#FFFFFF" d="M106.981,208.82l-0.073,2.938c2.468,0.063,4.975,0.028,7.452-0.104l-0.154-2.932
	C111.805,208.85,109.375,208.882,106.981,208.82z"/>
<path fill="#FFFFFF" d="M77.696,206.356c2.339,0.832,4.737,1.577,7.126,2.218l0.759-2.839c-2.313-0.618-4.635-1.341-6.901-2.146
	L77.696,206.356z"/>
<path fill="#FFFFFF" d="M92.091,210.216c2.434,0.449,4.915,0.808,7.379,1.063l0.304-2.921c-2.386-0.248-4.791-0.596-7.146-1.03
	L92.091,210.216z"/>
<path fill="#FFFFFF" d="M46.348,50.137l-2.015-2.134c-1.8,1.697-3.555,3.49-5.217,5.324l2.178,1.973
	C42.904,53.521,44.605,51.784,46.348,50.137z"/>
<path fill="#FFFFFF" d="M135.52,205.074l0.832,2.818c2.367-0.698,4.744-1.504,7.063-2.395l-1.055-2.742
	C140.115,203.617,137.813,204.397,135.52,205.074z"/>
<path fill="#FFFFFF" d="M148.996,199.9l1.264,2.65c2.229-1.064,4.445-2.234,6.59-3.477l-1.469-2.541
	C153.303,197.736,151.154,198.869,148.996,199.9z"/>
<path fill="#FFFFFF" d="M64.085,200.277c2.181,1.186,4.429,2.299,6.687,3.309l1.197-2.682c-2.187-0.979-4.365-2.057-6.478-3.207
	L64.085,200.277z"/>
<path fill="#FFFFFF" d="M36.658,60.838l-2.323-1.794c-1.517,1.965-2.973,4.009-4.323,6.073l2.456,1.609
	C33.777,64.725,35.188,62.744,36.658,60.838z"/>
<path fill="#FFFFFF" d="M22.834,86.099l-2.765-0.986c-0.836,2.335-1.586,4.731-2.231,7.12l2.836,0.765
	C21.298,90.683,22.026,88.362,22.834,86.099z"/>
<path fill="#FFFFFF" d="M28.75,72.924l-2.579-1.41c-1.191,2.18-2.307,4.428-3.319,6.678l2.68,1.204
	C26.511,77.215,27.593,75.036,28.75,72.924z"/>
<path fill="#FFFFFF" d="M56.957,195.959c0.244,0.162,0.482,0.334,0.726,0.493l0.321-0.493H56.957z"/>
<path fill="#FFFFFF" d="M19.067,100.039l-2.888-0.538c-0.455,2.442-0.816,4.923-1.076,7.376l2.92,0.31
	C18.274,104.809,18.626,102.405,19.067,100.039z"/>
<g>
	<path fill="#FFFFFF" d="M73,21.408C37,34.906,10.897,70.25,7.871,110.25h2.944C13.807,71.25,38,37.878,73,24.545V21.408z"/>
	<path fill="#FFFFFF" d="M142,20.955v3.137c36,13.034,62.936,47.158,65.963,86.158h2.943C207.846,69.25,180,34.144,142,20.955z"/>
</g>
<text transform="matrix(1.2207 0 0 1 49.9077 182.2344)" fill="#FFFFFF" font-family="'TimesNewRomanPSMT'" font-size="12.0188">Couture zéro déchet</text>
</svg>
