<?xml version="1.0" encoding="utf-8"?>
<!-- Generator: Adobe Illustrator 16.0.3, SVG Export Plug-In . SVG Version: 6.00 Build 0)  -->
<!DOCTYPE svg PUBLIC "-//W3C//DTD SVG 1.1//EN" "http://www.w3.org/Graphics/SVG/1.1/DTD/svg11.dtd">
<svg version="1.1" xmlns="http://www.w3.org/2000/svg" xmlns:xlink="http://www.w3.org/1999/xlink" x="0px" y="0px" width="330px"
	 height="330px" viewBox="0 0 330 330" enable-background="new 0 0 330 330" xml:space="preserve">
<g id="Layer_1" display="none">
	<g display="inline">
		<path fill="#F3D2AF" d="M152.868,246.437c-41.782-4.253-73.305-39.279-73.305-81.312c0-42.031,32.274-77.308,73.805-81.311
			l-8.755,8.756c-1.001,1.001-1.001,2.502,0,3.503c0.5,0.5,1.25,0.751,1.75,0.751s1.252-0.251,1.752-0.751l13.26-13.26
			c0.5-0.501,0.75-1.001,0.75-1.752c0-0.75-0.5-1.25-1-1.751l-13.26-13.26c-1.002-1.001-2.502-1.001-3.502,0
			c-1.001,1.001-1.001,2.502,0,3.503l9.005,9.007c-44.533,3.752-79.31,41.531-79.31,86.314c0,44.784,33.526,81.812,77.81,86.315
			h0.25c1.25,0,2.252-1.001,2.502-2.252C155.12,247.688,154.12,246.437,152.868,246.437"/>
		<path fill="none" stroke="#F3D2AF" stroke-width="5" stroke-miterlimit="10" d="M152.868,246.437
			c-41.782-4.253-73.305-39.279-73.305-81.312c0-42.031,32.274-77.308,73.805-81.311l-8.755,8.756c-1.001,1.001-1.001,2.502,0,3.503
			c0.5,0.5,1.25,0.751,1.75,0.751s1.252-0.251,1.752-0.751l13.26-13.26c0.5-0.501,0.75-1.001,0.75-1.752c0-0.75-0.5-1.25-1-1.751
			l-13.26-13.26c-1.002-1.001-2.502-1.001-3.502,0c-1.001,1.001-1.001,2.502,0,3.503l9.005,9.007
			c-44.533,3.752-79.31,41.531-79.31,86.314c0,44.784,33.526,81.812,77.81,86.315h0.25c1.25,0,2.252-1.001,2.502-2.252
			C155.12,247.688,154.12,246.437,152.868,246.437z"/>
		<path fill="#F3D2AF" d="M177.882,78.561c-1.252,0-2.502,0.75-2.752,2.251c-0.25,1.251,0.75,2.502,2.252,2.752
			c41.78,4.254,73.305,39.28,73.305,81.312c0,42.032-32.275,77.309-73.807,81.312l8.758-8.757c1-1.001,1-2.502,0-3.503
			c-1.002-1.001-2.502-1.001-3.504,0l-13.01,13.26c-0.5,0.501-0.75,1.001-0.75,1.752c0,0.75,0.25,1.251,0.75,1.751l13.26,13.261
			c0.502,0.5,1.252,0.75,1.752,0.75s1.25-0.25,1.752-0.75c1-1,1-2.502,0-3.502l-9.258-9.258
			c44.534-3.753,79.311-41.531,79.311-86.315C255.94,120.092,222.415,83.063,177.882,78.561"/>
		<path fill="none" stroke="#F3D2AF" stroke-width="5" stroke-miterlimit="10" d="M177.882,78.561c-1.252,0-2.502,0.75-2.752,2.251
			c-0.25,1.251,0.75,2.502,2.252,2.752c41.78,4.254,73.305,39.28,73.305,81.312c0,42.032-32.275,77.309-73.807,81.312l8.758-8.757
			c1-1.001,1-2.502,0-3.503c-1.002-1.001-2.502-1.001-3.504,0l-13.01,13.26c-0.5,0.501-0.75,1.001-0.75,1.752
			c0,0.75,0.25,1.251,0.75,1.751l13.26,13.261c0.502,0.5,1.252,0.75,1.752,0.75s1.25-0.25,1.752-0.75c1-1,1-2.502,0-3.502
			l-9.258-9.258c44.534-3.753,79.311-41.531,79.311-86.315C255.94,120.092,222.415,83.063,177.882,78.561z"/>
	</g>
</g>
<g id="Layer_2" display="none">
	<path display="inline" fill="#B7DBCF" d="M149.093,197.109c0.596,0.893,1.486,1.189,2.379,1.189c0.595,0,1.189-0.297,1.783-0.596
		l26.759-18.135c0.892-0.596,1.486-1.486,1.188-2.676c-0.297-1.189-0.594-2.082-1.783-2.379l-21.406-10.109l21.703-12.485
		c1.486-0.893,1.784-2.676,1.189-4.163c-0.892-1.487-2.676-1.784-4.162-1.189l-26.461,15.162c-0.893,0.595-1.486,1.488-1.486,2.675
		c0,1.189,0.594,2.082,1.783,2.677l21.704,10.405l-22.595,15.164C148.498,193.84,148.201,195.623,149.093,197.109"/>
	<path display="inline" fill="#B7DBCF" d="M196.068,87.402h-8.622v-15.46c0-1.784-1.189-2.973-2.974-2.973h-38.948
		c-1.782,0-2.973,1.188-2.973,2.973v15.46h-8.621c-1.783,0-2.973,1.189-2.973,2.974v167.683c0,1.781,1.189,2.973,2.973,2.973h62.138
		c1.783,0,2.974-1.191,2.974-2.973V90.376C199.042,88.888,197.852,87.402,196.068,87.402 M148.499,75.212H181.5v12.487h-33.001
		V75.212z M193.095,128.728h-56.191v-35.38h56.191V128.728z M193.095,223.273h-56.191v-88.6h56.191V223.273z M136.903,229.219
		h56.191v26.164h-56.191V229.219z"/>
	<path display="inline" fill="#B7DBCF" d="M173.175,239.922h-16.352c-1.784,0-2.973,1.189-2.973,2.973
		c0,1.785,1.188,2.975,2.973,2.975h16.352c1.784,0,2.974-1.189,2.974-2.975C176.148,241.111,174.959,239.922,173.175,239.922"/>
	<path display="inline" fill="#B7DBCF" d="M156.823,114.16h5.352v5.352c0,1.784,1.189,2.973,2.974,2.973
		c1.782,0,2.973-1.189,2.973-2.973v-5.352h5.352c1.783,0,2.974-1.189,2.974-2.973c0-1.784-1.19-2.973-2.974-2.973h-5.352v-5.352
		c0-1.783-1.19-2.973-2.973-2.973c-1.784,0-2.974,1.19-2.974,2.973v5.352h-5.352c-1.784,0-2.973,1.189-2.973,2.973
		C153.851,112.971,155.039,114.16,156.823,114.16"/>
</g>
<g id="Layer_3">
	<path fill="#FDEBC3" d="M165.018,257.893c1.282,0,2.322-1.039,2.322-2.32v-50.24c41.223-1.242,74.374-35.162,74.374-76.68
		c0-1.157-0.853-2.138-1.999-2.299c-17.33-2.437-32.075-0.602-44.018,5.44c0.059-10.63-2.56-38.5-29.275-59.2
		c-0.837-0.648-2.007-0.648-2.844,0c-26.715,20.699-29.334,48.568-29.275,59.199c-11.941-6.043-26.687-7.877-44.018-5.439
		c-1.146,0.161-1.999,1.142-1.999,2.299c0,41.532,33.17,75.459,74.41,76.68v50.24C162.696,256.854,163.736,257.893,165.018,257.893
		 M237.042,130.685c-1.058,38.026-31.716,68.782-69.702,70v-9.232c0-0.104-0.001-0.385-0.014-0.82
		c0.199-5.041,2.13-32.026,20.695-48.141C199.946,132.14,216.434,128.173,237.042,130.685 M165,77.393
		c26.396,21.483,26.266,51.191,25.952,57.134c-2.099,1.352-4.107,2.835-6.003,4.482c-11.772,10.233-17.328,24.116-19.949,35.034
		c-2.621-10.918-8.177-24.801-19.949-35.034c-1.896-1.648-3.907-3.133-6.006-4.484C138.72,128.587,138.541,98.925,165,77.393
		 M92.958,130.685c20.611-2.512,37.095,1.455,49.021,11.807c18.567,16.117,20.498,43.102,20.695,48.139
		c-0.013,0.438-0.014,0.719-0.014,0.822c0,0.141,0.012,0.277,0.036,0.412v8.82C124.693,199.486,94.016,168.723,92.958,130.685"/>
	<path fill="none" stroke="#FDEBC3" stroke-width="6" stroke-miterlimit="10" d="M165.018,257.893c1.282,0,2.322-1.039,2.322-2.32
		v-50.24c41.223-1.242,74.374-35.162,74.374-76.68c0-1.157-0.853-2.138-1.999-2.299c-17.33-2.437-32.075-0.602-44.018,5.44
		c0.059-10.63-2.56-38.5-29.275-59.2c-0.837-0.648-2.007-0.648-2.844,0c-26.715,20.699-29.334,48.568-29.275,59.199
		c-11.941-6.043-26.687-7.877-44.018-5.439c-1.146,0.161-1.999,1.142-1.999,2.299c0,41.532,33.17,75.459,74.41,76.68v50.24
		C162.696,256.854,163.736,257.893,165.018,257.893z M237.042,130.685c-1.058,38.026-31.716,68.782-69.702,70v-9.232
		c0-0.104-0.001-0.385-0.014-0.82c0.199-5.041,2.13-32.026,20.695-48.141C199.946,132.14,216.434,128.173,237.042,130.685z
		 M165,77.393c26.396,21.483,26.266,51.191,25.952,57.134c-2.099,1.352-4.107,2.835-6.003,4.482
		c-11.772,10.233-17.328,24.116-19.949,35.034c-2.621-10.918-8.177-24.801-19.949-35.034c-1.896-1.648-3.907-3.133-6.006-4.484
		C138.72,128.587,138.541,98.925,165,77.393z M92.958,130.685c20.611-2.512,37.095,1.455,49.021,11.807
		c18.567,16.117,20.498,43.102,20.695,48.139c-0.013,0.438-0.014,0.719-0.014,0.822c0,0.141,0.012,0.277,0.036,0.412v8.82
		C124.693,199.486,94.016,168.723,92.958,130.685z"/>
</g>
</svg>
