<?xml version="1.0" encoding="utf-8"?>
<!-- Generator: Adobe Illustrator 16.0.3, SVG Export Plug-In . SVG Version: 6.00 Build 0)  -->
<!DOCTYPE svg PUBLIC "-//W3C//DTD SVG 1.1//EN" "http://www.w3.org/Graphics/SVG/1.1/DTD/svg11.dtd">
<svg version="1.1" id="Layer_1" xmlns="http://www.w3.org/2000/svg" xmlns:xlink="http://www.w3.org/1999/xlink" x="0px" y="0px"
	 width="330px" height="330px" viewBox="0 0 330 330" enable-background="new 0 0 330 330" xml:space="preserve">
<g>
	<path fill="#F3D2AF" d="M152.868,246.437c-41.782-4.253-73.305-39.279-73.305-81.312c0-42.031,32.274-77.308,73.805-81.311
		l-8.755,8.756c-1.001,1.001-1.001,2.502,0,3.503c0.5,0.5,1.25,0.751,1.75,0.751s1.252-0.251,1.752-0.751l13.26-13.26
		c0.5-0.501,0.75-1.001,0.75-1.752c0-0.75-0.5-1.25-1-1.751l-13.26-13.26c-1.002-1.001-2.502-1.001-3.502,0
		c-1.001,1.001-1.001,2.502,0,3.503l9.005,9.007c-44.533,3.752-79.31,41.531-79.31,86.314c0,44.784,33.526,81.812,77.81,86.315h0.25
		c1.25,0,2.252-1.001,2.502-2.252C155.12,247.688,154.12,246.437,152.868,246.437"/>
	<path fill="none" stroke="#F3D2AF" stroke-width="5" stroke-miterlimit="10" d="M152.868,246.437
		c-41.782-4.253-73.305-39.279-73.305-81.312c0-42.031,32.274-77.308,73.805-81.311l-8.755,8.756c-1.001,1.001-1.001,2.502,0,3.503
		c0.5,0.5,1.25,0.751,1.75,0.751s1.252-0.251,1.752-0.751l13.26-13.26c0.5-0.501,0.75-1.001,0.75-1.752c0-0.75-0.5-1.25-1-1.751
		l-13.26-13.26c-1.002-1.001-2.502-1.001-3.502,0c-1.001,1.001-1.001,2.502,0,3.503l9.005,9.007
		c-44.533,3.752-79.31,41.531-79.31,86.314c0,44.784,33.526,81.812,77.81,86.315h0.25c1.25,0,2.252-1.001,2.502-2.252
		C155.12,247.688,154.12,246.437,152.868,246.437z"/>
	<path fill="#F3D2AF" d="M177.882,78.561c-1.252,0-2.502,0.75-2.752,2.251c-0.25,1.251,0.75,2.502,2.252,2.752
		c41.78,4.254,73.305,39.28,73.305,81.312c0,42.032-32.275,77.309-73.807,81.312l8.758-8.757c1-1.001,1-2.502,0-3.503
		c-1.002-1.001-2.502-1.001-3.504,0l-13.01,13.26c-0.5,0.501-0.75,1.001-0.75,1.752c0,0.75,0.25,1.251,0.75,1.751l13.26,13.261
		c0.502,0.5,1.252,0.75,1.752,0.75s1.25-0.25,1.752-0.75c1-1,1-2.502,0-3.502l-9.258-9.258
		c44.534-3.753,79.311-41.531,79.311-86.315C255.94,120.092,222.415,83.063,177.882,78.561"/>
	<path fill="none" stroke="#F3D2AF" stroke-width="5" stroke-miterlimit="10" d="M177.882,78.561c-1.252,0-2.502,0.75-2.752,2.251
		c-0.25,1.251,0.75,2.502,2.252,2.752c41.78,4.254,73.305,39.28,73.305,81.312c0,42.032-32.275,77.309-73.807,81.312l8.758-8.757
		c1-1.001,1-2.502,0-3.503c-1.002-1.001-2.502-1.001-3.504,0l-13.01,13.26c-0.5,0.501-0.75,1.001-0.75,1.752
		c0,0.75,0.25,1.251,0.75,1.751l13.26,13.261c0.502,0.5,1.252,0.75,1.752,0.75s1.25-0.25,1.752-0.75c1-1,1-2.502,0-3.502
		l-9.258-9.258c44.534-3.753,79.311-41.531,79.311-86.315C255.94,120.092,222.415,83.063,177.882,78.561z"/>
</g>
</svg>
